<svg width="77" height="58" viewBox="0 0 77 58" fill="none" xmlns="http://www.w3.org/2000/svg">
<g clip-path="url(#clip0_2022_12)">
<path d="M77 29.691C76.6887 30.9755 75.8213 31.873 74.9207 32.7705C67.1326 40.5395 59.3573 48.3197 51.5819 56.1014C50.3336 57.3496 48.8863 57.8805 47.1878 57.2627C46.5826 57.0431 45.9933 56.6402 45.5351 56.1835C37.4516 48.1332 29.3839 40.0671 21.3257 31.9915C19.2021 29.8616 19.6966 26.6478 22.3306 25.3996C23.7368 24.7328 25.1114 24.9161 26.3739 25.8183C26.6741 26.0316 26.938 26.3002 27.1987 26.5625C34.1256 33.4862 41.0509 40.4131 47.9746 47.3416C48.1311 47.498 48.2654 47.6797 48.4487 47.8962C48.6588 47.6955 48.8184 47.5518 48.9701 47.4001C55.9617 40.41 62.955 33.4199 69.942 26.425C71.1728 25.1926 72.5964 24.6838 74.2918 25.2511C75.5258 25.6634 76.3569 26.5151 76.7851 27.7523C76.8436 27.9213 76.9273 28.0793 77 28.2437V29.691Z" fill="black"/>
</g>
<g clip-path="url(#clip1_2022_12)">
<path d="M-4.17654e-07 27.8315C0.311268 26.5469 1.17871 25.6494 2.07934 24.752C9.86736 16.9829 17.6427 9.2028 25.4181 1.42109C26.6664 0.17286 28.1137 -0.358035 29.8122 0.259762C30.4174 0.479387 31.0067 0.882298 31.4649 1.33893C39.5484 9.38924 47.6161 17.4554 55.6743 25.531C57.7979 27.6608 57.3034 30.8747 54.6694 32.1229C53.2632 32.7897 51.8886 32.6064 50.6261 31.7042C50.3259 31.4909 50.062 31.2223 49.8013 30.96C42.8744 24.0362 35.9491 17.1093 29.0254 10.1808C28.8689 10.0244 28.7346 9.84271 28.5514 9.62625C28.3412 9.82691 28.1816 9.9707 28.0299 10.1224C21.0383 17.1125 14.045 24.1026 7.05805 31.0974C5.82719 32.3299 4.40358 32.8386 2.70819 32.2714C1.47418 31.859 0.643074 31.0074 0.214883 29.7702C0.156421 29.6011 0.0726814 29.4431 -5.44182e-07 29.2788L-4.17654e-07 27.8315Z" fill="black"/>
</g>
<defs>
<clipPath id="clip0_2022_12">
<rect width="57" height="32.522" fill="white" transform="translate(20 25)"/>
</clipPath>
<clipPath id="clip1_2022_12">
<rect width="57" height="32.522" fill="white" transform="translate(57 32.5225) rotate(-180)"/>
</clipPath>
</defs>
</svg>
